<svg xmlns="http://www.w3.org/2000/svg" xmlns:xlink="http://www.w3.org/1999/xlink" width="500" zoomAndPan="magnify" viewBox="0 0 375 374.999991" height="500" preserveAspectRatio="xMidYMid meet" version="1.2"><defs><clipPath id="615a82ca5f"><path d="M 123 127 L 262 127 L 262 249 L 123 249 Z M 123 127 "/></clipPath><clipPath id="e6e7a5bf36"><path d="M 96.046875 177.148438 L 227.285156 104.507812 L 278.859375 197.6875 L 147.625 270.328125 Z M 96.046875 177.148438 "/></clipPath><clipPath id="a1b2e906ea"><path d="M 96.046875 177.148438 L 227.285156 104.507812 L 278.859375 197.6875 L 147.625 270.328125 Z M 96.046875 177.148438 "/></clipPath><clipPath id="1b08094ac0"><path d="M 126 130 L 259 130 L 259 246 L 126 246 Z M 126 130 "/></clipPath><clipPath id="0aaaf16b5c"><path d="M 96.046875 177.148438 L 227.285156 104.507812 L 278.859375 197.6875 L 147.625 270.328125 Z M 96.046875 177.148438 "/></clipPath><clipPath id="912ec0eed2"><path d="M 96.046875 177.148438 L 227.285156 104.507812 L 278.859375 197.6875 L 147.625 270.328125 Z M 96.046875 177.148438 "/></clipPath><clipPath id="dcdb739327"><path d="M 123 127 L 262 127 L 262 249 L 123 249 Z M 123 127 "/></clipPath><clipPath id="81b2b80155"><path d="M 96.046875 177.148438 L 227.285156 104.507812 L 278.859375 197.6875 L 147.625 270.328125 Z M 96.046875 177.148438 "/></clipPath><clipPath id="d365e07d64"><path d="M 96.046875 177.148438 L 227.285156 104.507812 L 278.859375 197.6875 L 147.625 270.328125 Z M 96.046875 177.148438 "/></clipPath><clipPath id="a61e9a7e7a"><path d="M 126 130 L 259 130 L 259 246 L 126 246 Z M 126 130 "/></clipPath><clipPath id="f2a82e8794"><path d="M 96.046875 177.148438 L 227.285156 104.507812 L 278.859375 197.6875 L 147.625 270.328125 Z M 96.046875 177.148438 "/></clipPath><clipPath id="2e286ab365"><path d="M 96.046875 177.148438 L 227.285156 104.507812 L 278.859375 197.6875 L 147.625 270.328125 Z M 96.046875 177.148438 "/></clipPath></defs><g id="a5633c6439"><g clip-rule="nonzero" clip-path="url(#615a82ca5f)"><g clip-rule="nonzero" clip-path="url(#e6e7a5bf36)"><g clip-rule="nonzero" clip-path="url(#a1b2e906ea)"><path style=" stroke:none;fill-rule:nonzero;fill:#ffffff;fill-opacity:1;" d="M 177.742188 132.023438 C 178.234375 131.660156 178.851562 131.359375 179.394531 131.070312 C 179.621094 130.949219 179.851562 130.832031 180.085938 130.714844 C 180.316406 130.597656 180.550781 130.484375 180.785156 130.375 C 181.023438 130.261719 181.257812 130.15625 181.496094 130.050781 C 181.734375 129.945312 181.972656 129.84375 182.210938 129.742188 C 182.453125 129.644531 182.695312 129.546875 182.9375 129.457031 C 183.179688 129.363281 183.421875 129.273438 183.667969 129.183594 C 183.914062 129.097656 184.15625 129.011719 184.40625 128.933594 C 184.652344 128.851562 184.898438 128.773438 185.148438 128.699219 C 185.398438 128.621094 185.648438 128.550781 185.898438 128.480469 C 186.148438 128.414062 186.398438 128.347656 186.652344 128.285156 C 186.902344 128.21875 187.15625 128.160156 187.410156 128.105469 C 187.664062 128.046875 187.917969 127.992188 188.171875 127.941406 C 188.425781 127.894531 188.683594 127.84375 188.9375 127.800781 C 189.195312 127.757812 189.453125 127.714844 189.707031 127.679688 C 189.964844 127.640625 190.222656 127.605469 190.480469 127.574219 C 190.738281 127.542969 190.996094 127.511719 191.253906 127.488281 C 191.515625 127.460938 191.773438 127.441406 192.03125 127.421875 C 192.292969 127.402344 192.550781 127.386719 192.808594 127.375 C 193.070312 127.363281 193.328125 127.351562 193.589844 127.347656 C 193.847656 127.339844 194.109375 127.335938 194.367188 127.335938 C 194.628906 127.335938 194.886719 127.339844 195.148438 127.347656 C 195.40625 127.351562 195.667969 127.363281 195.925781 127.375 C 196.1875 127.386719 196.445312 127.402344 196.703125 127.421875 C 196.964844 127.441406 197.222656 127.464844 197.480469 127.488281 C 197.738281 127.515625 198 127.542969 198.257812 127.574219 C 198.515625 127.609375 198.773438 127.644531 199.027344 127.679688 C 199.285156 127.71875 199.542969 127.761719 199.796875 127.804688 C 200.054688 127.847656 200.308594 127.898438 200.5625 127.945312 C 200.820312 127.996094 201.074219 128.050781 201.328125 128.109375 C 201.582031 128.164062 201.832031 128.226562 202.085938 128.289062 C 202.335938 128.351562 202.589844 128.417969 202.839844 128.488281 C 203.089844 128.554688 203.339844 128.628906 203.589844 128.703125 C 203.796875 128.769531 204.007812 128.835938 204.214844 128.902344 C 204.421875 128.972656 204.628906 129.042969 204.835938 129.117188 C 205.042969 129.1875 205.25 129.261719 205.453125 129.339844 C 205.660156 129.417969 205.863281 129.496094 206.066406 129.578125 C 206.269531 129.660156 206.472656 129.746094 206.671875 129.832031 C 206.875 129.914062 207.074219 130.003906 207.273438 130.09375 C 207.472656 130.183594 207.671875 130.277344 207.871094 130.371094 C 208.070312 130.464844 208.265625 130.558594 208.460938 130.660156 C 208.65625 130.757812 208.851562 130.855469 209.046875 130.960938 C 209.238281 131.0625 209.433594 131.167969 209.625 131.273438 C 209.816406 131.378906 210.003906 131.488281 210.195312 131.597656 C 210.382812 131.707031 210.570312 131.820312 210.757812 131.933594 C 210.945312 132.046875 211.132812 132.164062 211.316406 132.28125 C 211.5 132.402344 211.683594 132.519531 211.867188 132.644531 C 212.046875 132.765625 212.226562 132.890625 212.40625 133.015625 C 212.585938 133.140625 212.765625 133.269531 212.941406 133.398438 C 213.117188 133.527344 213.292969 133.660156 213.46875 133.792969 C 213.640625 133.925781 213.8125 134.058594 213.984375 134.195312 C 214.15625 134.332031 214.324219 134.472656 214.492188 134.613281 C 214.664062 134.753906 214.828125 134.894531 214.992188 135.039062 C 215.160156 135.183594 215.324219 135.328125 215.484375 135.476562 C 215.648438 135.621094 215.808594 135.769531 215.96875 135.921875 C 216.125 136.070312 216.285156 136.222656 216.441406 136.378906 C 216.59375 136.53125 216.75 136.6875 216.902344 136.84375 C 217.054688 137 217.207031 137.160156 217.355469 137.320312 C 217.503906 137.480469 217.652344 137.644531 217.796875 137.804688 C 217.945312 137.96875 218.089844 138.132812 218.230469 138.300781 C 218.375 138.46875 218.515625 138.636719 218.652344 138.804688 C 218.792969 138.972656 218.929688 139.144531 219.066406 139.316406 C 219.199219 139.488281 219.335938 139.664062 219.464844 139.835938 C 219.597656 140.011719 219.726562 140.1875 219.855469 140.367188 C 219.984375 140.542969 220.109375 140.722656 220.234375 140.902344 C 221.214844 142.316406 222.027344 143.8125 222.835938 145.328125 C 224.117188 144.925781 225.410156 144.546875 226.738281 144.320312 C 230.804688 143.617188 235.246094 143.96875 239.191406 145.140625 C 247.480469 147.605469 253.550781 152.691406 257.644531 160.269531 C 261.28125 166.996094 262.003906 174.644531 259.824219 181.945312 C 258.238281 187.253906 254.621094 192.25 250.199219 195.570312 C 248.535156 196.820312 246.75 197.808594 244.925781 198.796875 C 245.304688 200.875 245.351562 203.320312 245.023438 205.40625 C 244.992188 205.605469 244.957031 205.808594 244.921875 206.007812 C 244.886719 206.207031 244.847656 206.40625 244.804688 206.601562 C 244.765625 206.800781 244.722656 207 244.675781 207.195312 C 244.628906 207.394531 244.582031 207.589844 244.53125 207.785156 C 244.480469 207.984375 244.425781 208.179688 244.371094 208.375 C 244.3125 208.566406 244.253906 208.761719 244.195312 208.957031 C 244.132812 209.148438 244.070312 209.339844 244.003906 209.535156 C 243.941406 209.726562 243.871094 209.917969 243.800781 210.105469 C 243.730469 210.296875 243.660156 210.484375 243.585938 210.675781 C 243.511719 210.863281 243.433594 211.050781 243.355469 211.238281 C 243.273438 211.421875 243.191406 211.609375 243.109375 211.792969 C 243.023438 211.976562 242.9375 212.160156 242.847656 212.34375 C 242.761719 212.523438 242.671875 212.707031 242.578125 212.886719 C 242.484375 213.066406 242.390625 213.246094 242.292969 213.421875 C 242.195312 213.601562 242.09375 213.777344 241.992188 213.953125 C 241.890625 214.128906 241.785156 214.300781 241.679688 214.472656 C 241.574219 214.648438 241.464844 214.816406 241.355469 214.988281 C 241.246094 215.15625 241.132812 215.328125 241.019531 215.492188 C 240.902344 215.660156 240.789062 215.828125 240.667969 215.992188 C 240.550781 216.15625 240.429688 216.316406 240.308594 216.480469 C 240.183594 216.640625 240.058594 216.800781 239.933594 216.957031 C 239.804688 217.117188 239.675781 217.273438 239.546875 217.429688 C 239.417969 217.582031 239.285156 217.738281 239.148438 217.890625 C 239.015625 218.039062 238.878906 218.191406 238.742188 218.339844 C 238.601562 218.488281 238.464844 218.632812 238.320312 218.78125 C 238.179688 218.925781 238.035156 219.066406 237.890625 219.210938 C 237.746094 219.351562 237.601562 219.488281 237.449219 219.628906 C 237.300781 219.765625 237.152344 219.902344 237 220.035156 C 236.847656 220.167969 236.695312 220.300781 236.539062 220.433594 C 236.382812 220.5625 236.226562 220.691406 236.070312 220.816406 C 235.910156 220.941406 235.75 221.066406 235.589844 221.191406 C 235.425781 221.3125 235.265625 221.433594 235.101562 221.550781 C 234.960938 221.652344 234.824219 221.75 234.683594 221.847656 C 234.542969 221.945312 234.402344 222.039062 234.261719 222.132812 C 234.117188 222.230469 233.976562 222.320312 233.832031 222.414062 C 233.6875 222.503906 233.542969 222.59375 233.394531 222.683594 C 233.25 222.769531 233.105469 222.855469 232.957031 222.941406 C 232.808594 223.027344 232.660156 223.109375 232.511719 223.191406 C 232.359375 223.273438 232.210938 223.355469 232.058594 223.433594 C 231.910156 223.511719 231.757812 223.589844 231.605469 223.664062 C 231.453125 223.738281 231.296875 223.8125 231.144531 223.886719 C 230.988281 223.957031 230.835938 224.03125 230.679688 224.097656 C 230.523438 224.167969 230.367188 224.234375 230.207031 224.300781 C 230.050781 224.367188 229.894531 224.429688 229.734375 224.492188 C 229.578125 224.554688 229.417969 224.617188 229.257812 224.675781 C 229.097656 224.734375 228.9375 224.792969 228.777344 224.847656 C 228.617188 224.902344 228.453125 224.957031 228.292969 225.011719 C 228.128906 225.0625 227.964844 225.113281 227.804688 225.160156 C 227.640625 225.210938 227.476562 225.257812 227.3125 225.304688 C 227.148438 225.347656 226.984375 225.394531 226.816406 225.433594 C 226.652344 225.476562 226.488281 225.515625 226.320312 225.554688 C 226.15625 225.59375 225.988281 225.628906 225.820312 225.664062 C 225.65625 225.699219 225.488281 225.734375 225.320312 225.765625 C 225.152344 225.796875 224.984375 225.828125 224.816406 225.855469 C 224.648438 225.882812 224.480469 225.910156 224.3125 225.933594 C 224.144531 225.957031 223.976562 225.980469 223.804688 226 C 223.636719 226.023438 223.46875 226.039062 223.296875 226.058594 C 223.128906 226.074219 222.957031 226.089844 222.789062 226.105469 C 222.617188 226.117188 222.449219 226.128906 222.277344 226.140625 C 222.109375 226.152344 221.9375 226.160156 221.769531 226.164062 C 221.597656 226.171875 221.425781 226.175781 221.257812 226.179688 C 221.085938 226.183594 220.917969 226.183594 220.746094 226.183594 C 220.574219 226.183594 220.40625 226.179688 220.234375 226.175781 C 220.0625 226.171875 219.894531 226.164062 219.722656 226.15625 C 218.222656 226.09375 216.746094 225.859375 215.261719 225.621094 C 214.476562 228.140625 213.082031 230.644531 211.46875 232.726562 C 211.347656 232.882812 211.226562 233.039062 211.101562 233.191406 C 210.976562 233.34375 210.851562 233.496094 210.726562 233.648438 C 210.597656 233.796875 210.46875 233.945312 210.335938 234.09375 C 210.203125 234.242188 210.070312 234.386719 209.9375 234.527344 C 209.800781 234.671875 209.664062 234.816406 209.527344 234.953125 C 209.386719 235.09375 209.246094 235.234375 209.105469 235.371094 C 208.960938 235.507812 208.820312 235.640625 208.671875 235.773438 C 208.527344 235.910156 208.382812 236.039062 208.234375 236.167969 C 208.082031 236.296875 207.933594 236.425781 207.78125 236.550781 C 207.628906 236.679688 207.476562 236.800781 207.320312 236.921875 C 207.167969 237.046875 207.011719 237.164062 206.851562 237.285156 C 206.695312 237.402344 206.535156 237.519531 206.375 237.632812 C 206.214844 237.746094 206.050781 237.859375 205.886719 237.96875 C 205.722656 238.078125 205.558594 238.1875 205.394531 238.292969 C 205.226562 238.398438 205.058594 238.503906 204.890625 238.605469 C 204.722656 238.707031 204.550781 238.804688 204.378906 238.902344 C 204.210938 239 204.035156 239.097656 203.863281 239.1875 C 203.6875 239.28125 203.515625 239.375 203.339844 239.460938 C 203.164062 239.550781 202.984375 239.636719 202.808594 239.722656 C 202.628906 239.808594 202.449219 239.890625 202.269531 239.96875 C 202.089844 240.050781 201.910156 240.128906 201.726562 240.203125 C 201.542969 240.277344 201.363281 240.351562 201.175781 240.421875 C 200.992188 240.492188 200.808594 240.5625 200.625 240.628906 C 200.4375 240.695312 200.25 240.761719 200.0625 240.820312 C 199.875 240.882812 199.6875 240.941406 199.5 241 C 199.3125 241.058594 199.121094 241.113281 198.933594 241.164062 C 198.742188 241.214844 198.550781 241.265625 198.359375 241.316406 C 198.167969 241.363281 197.976562 241.40625 197.785156 241.449219 C 197.589844 241.492188 197.398438 241.535156 197.207031 241.570312 C 197.011719 241.609375 196.816406 241.644531 196.625 241.679688 C 196.429688 241.710938 196.234375 241.742188 196.039062 241.769531 C 195.84375 241.800781 195.648438 241.824219 195.453125 241.847656 C 195.152344 241.882812 194.855469 241.90625 194.554688 241.929688 C 194.253906 241.949219 193.953125 241.964844 193.652344 241.976562 C 193.351562 241.984375 193.050781 241.992188 192.75 241.992188 C 192.449219 241.988281 192.148438 241.984375 191.847656 241.972656 C 191.546875 241.960938 191.246094 241.945312 190.945312 241.925781 C 190.644531 241.902344 190.347656 241.878906 190.046875 241.84375 C 189.746094 241.8125 189.449219 241.777344 189.152344 241.734375 C 188.851562 241.691406 188.554688 241.640625 188.261719 241.589844 C 187.964844 241.535156 187.667969 241.476562 187.375 241.414062 C 187.082031 241.351562 186.789062 241.28125 186.496094 241.207031 C 186.203125 241.132812 185.914062 241.054688 185.625 240.972656 C 185.335938 240.886719 185.046875 240.796875 184.761719 240.703125 C 184.476562 240.609375 184.191406 240.511719 183.910156 240.40625 C 183.628906 240.300781 183.347656 240.191406 183.070312 240.078125 C 182.789062 239.964844 182.515625 239.84375 182.242188 239.722656 C 181.964844 239.597656 181.695312 239.46875 181.425781 239.335938 C 180.105469 238.671875 178.863281 237.839844 177.59375 237.089844 C 173.277344 242.554688 167.496094 246.320312 160.621094 247.683594 C 160.367188 247.730469 160.117188 247.773438 159.863281 247.816406 C 159.609375 247.859375 159.355469 247.898438 159.101562 247.933594 C 158.84375 247.96875 158.589844 248 158.335938 248.03125 C 158.082031 248.058594 157.824219 248.085938 157.570312 248.109375 C 157.3125 248.132812 157.058594 248.152344 156.800781 248.167969 C 156.542969 248.1875 156.289062 248.199219 156.03125 248.210938 C 155.773438 248.21875 155.515625 248.226562 155.261719 248.230469 C 155.003906 248.238281 154.746094 248.238281 154.488281 248.234375 C 154.234375 248.234375 153.976562 248.226562 153.71875 248.21875 C 153.460938 248.210938 153.207031 248.199219 152.949219 248.183594 C 152.691406 248.171875 152.4375 248.152344 152.179688 248.132812 C 151.925781 248.109375 151.667969 248.085938 151.414062 248.058594 C 151.15625 248.03125 150.902344 248 150.648438 247.96875 C 150.394531 247.933594 150.140625 247.898438 149.886719 247.859375 C 149.632812 247.820312 149.378906 247.777344 149.125 247.730469 C 148.871094 247.683594 148.621094 247.632812 148.367188 247.582031 C 148.117188 247.53125 147.867188 247.476562 147.617188 247.417969 C 147.367188 247.359375 147.117188 247.296875 146.867188 247.234375 C 146.617188 247.167969 146.371094 247.101562 146.125 247.03125 C 145.878906 246.960938 145.632812 246.886719 145.386719 246.808594 C 145.140625 246.734375 144.894531 246.652344 144.652344 246.570312 C 144.410156 246.488281 144.167969 246.402344 143.925781 246.3125 C 143.683594 246.226562 143.445312 246.132812 143.207031 246.039062 C 142.96875 245.945312 142.730469 245.847656 142.492188 245.75 C 142.257812 245.648438 142.019531 245.542969 141.785156 245.4375 C 141.550781 245.332031 141.320312 245.222656 141.089844 245.113281 C 140.855469 245 140.628906 244.886719 140.398438 244.769531 C 140.171875 244.652344 139.941406 244.53125 139.71875 244.410156 C 139.492188 244.285156 139.269531 244.160156 139.046875 244.03125 C 138.824219 243.902344 138.601562 243.773438 138.382812 243.636719 C 138.164062 243.503906 137.945312 243.367188 137.730469 243.226562 C 137.511719 243.089844 137.300781 242.949219 137.085938 242.804688 C 130.574219 238.402344 126.003906 231.113281 124.527344 223.429688 C 123.40625 217.597656 123.859375 211.238281 126.140625 205.730469 C 127.042969 203.554688 128.210938 201.5625 129.53125 199.617188 C 128.933594 198.820312 128.496094 197.796875 128.070312 196.894531 C 125.558594 191.523438 124.722656 185.484375 125.304688 179.609375 C 126.121094 171.390625 130.691406 163.640625 137.042969 158.464844 C 142.433594 154.070312 149.867188 151.519531 156.792969 151.460938 C 159.042969 151.441406 161.238281 151.746094 163.472656 151.976562 C 165.644531 143.519531 170.441406 136.800781 177.742188 132.023438 Z M 177.742188 132.023438 "/></g></g></g><g clip-rule="nonzero" clip-path="url(#1b08094ac0)"><g clip-rule="nonzero" clip-path="url(#0aaaf16b5c)"><g clip-rule="nonzero" clip-path="url(#912ec0eed2)"><path style=" stroke:none;fill-rule:nonzero;fill:#ffffff;fill-opacity:1;" d="M 180.84375 133.84375 C 181.429688 133.503906 182.046875 133.203125 182.664062 132.921875 C 189.871094 129.589844 197.648438 129.582031 205.03125 132.324219 C 205.257812 132.410156 205.484375 132.5 205.707031 132.589844 C 205.933594 132.679688 206.15625 132.773438 206.378906 132.867188 C 206.601562 132.964844 206.824219 133.0625 207.046875 133.164062 C 207.265625 133.265625 207.484375 133.371094 207.703125 133.476562 C 207.921875 133.585938 208.136719 133.695312 208.351562 133.808594 C 208.566406 133.917969 208.78125 134.035156 208.992188 134.152344 C 209.207031 134.269531 209.417969 134.390625 209.625 134.511719 C 209.835938 134.636719 210.042969 134.761719 210.25 134.890625 C 210.457031 135.019531 210.660156 135.148438 210.863281 135.28125 C 211.066406 135.414062 211.269531 135.550781 211.46875 135.6875 C 211.667969 135.824219 211.863281 135.964844 212.0625 136.109375 C 212.257812 136.253906 212.453125 136.398438 212.644531 136.546875 C 212.835938 136.695312 213.027344 136.84375 213.214844 136.996094 C 213.40625 137.148438 213.59375 137.304688 213.777344 137.460938 C 213.960938 137.617188 214.144531 137.777344 214.328125 137.9375 C 214.507812 138.101562 214.6875 138.265625 214.863281 138.429688 C 215.042969 138.597656 215.214844 138.765625 215.390625 138.933594 C 215.5625 139.105469 215.734375 139.277344 215.902344 139.453125 C 216.070312 139.625 216.238281 139.804688 216.402344 139.980469 C 216.566406 140.160156 216.726562 140.339844 216.886719 140.523438 C 217.046875 140.707031 217.203125 140.890625 217.359375 141.078125 C 217.515625 141.265625 217.667969 141.453125 217.816406 141.644531 C 217.96875 141.832031 218.117188 142.027344 218.261719 142.21875 C 218.410156 142.414062 218.550781 142.609375 218.691406 142.808594 C 218.835938 143.003906 218.972656 143.203125 219.109375 143.40625 C 219.246094 143.605469 219.378906 143.808594 219.507812 144.015625 C 219.640625 144.21875 219.769531 144.425781 219.894531 144.632812 C 220.019531 144.839844 220.144531 145.046875 220.265625 145.257812 C 220.386719 145.46875 220.503906 145.679688 220.621094 145.894531 C 220.734375 146.109375 220.847656 146.324219 220.957031 146.539062 C 221.066406 146.753906 221.175781 146.972656 221.28125 147.191406 C 221.386719 147.410156 221.488281 147.632812 221.585938 147.851562 C 228.382812 145.480469 234.386719 145.277344 241.160156 147.894531 C 241.363281 147.972656 241.570312 148.054688 241.777344 148.136719 C 241.980469 148.21875 242.183594 148.304688 242.386719 148.394531 C 242.589844 148.484375 242.789062 148.574219 242.992188 148.667969 C 243.191406 148.761719 243.390625 148.859375 243.585938 148.957031 C 243.785156 149.054688 243.980469 149.15625 244.179688 149.261719 C 244.375 149.363281 244.566406 149.46875 244.761719 149.578125 C 244.953125 149.6875 245.144531 149.796875 245.335938 149.910156 C 245.523438 150.023438 245.714844 150.136719 245.902344 150.253906 C 246.089844 150.371094 246.273438 150.492188 246.457031 150.613281 C 246.644531 150.734375 246.824219 150.859375 247.007812 150.988281 C 247.1875 151.113281 247.367188 151.242188 247.546875 151.375 C 247.722656 151.503906 247.902344 151.636719 248.074219 151.773438 C 248.25 151.910156 248.421875 152.046875 248.59375 152.1875 C 248.765625 152.324219 248.9375 152.46875 249.105469 152.609375 C 249.273438 152.753906 249.4375 152.902344 249.601562 153.046875 C 249.765625 153.195312 249.929688 153.347656 250.089844 153.5 C 250.25 153.648438 250.410156 153.804688 250.566406 153.960938 C 250.722656 154.117188 250.878906 154.273438 251.03125 154.433594 C 251.183594 154.59375 251.335938 154.753906 251.484375 154.917969 C 251.632812 155.082031 251.78125 155.246094 251.925781 155.414062 C 252.070312 155.578125 252.214844 155.75 252.355469 155.917969 C 252.496094 156.089844 252.632812 156.261719 252.769531 156.4375 C 252.90625 156.609375 253.039062 156.785156 253.171875 156.960938 C 253.304688 157.140625 253.433594 157.316406 253.5625 157.5 C 253.691406 157.679688 253.816406 157.859375 253.941406 158.042969 C 254.0625 158.226562 254.183594 158.414062 254.304688 158.597656 C 254.421875 158.785156 254.539062 158.972656 254.652344 159.164062 C 254.765625 159.351562 254.878906 159.542969 254.988281 159.734375 C 255.097656 159.925781 255.207031 160.121094 255.308594 160.316406 C 255.414062 160.511719 255.515625 160.707031 255.617188 160.902344 C 255.714844 161.101562 255.8125 161.300781 255.910156 161.5 C 256.003906 161.699219 256.097656 161.898438 256.1875 162.101562 C 258.988281 168.457031 258.859375 176.125 256.34375 182.558594 C 254.464844 187.363281 250.902344 191.703125 246.503906 194.402344 C 244.945312 195.359375 243.308594 196.074219 241.640625 196.800781 C 242.3125 200.460938 242.371094 204.492188 241.261719 208.0625 C 239.523438 213.636719 235.695312 218.082031 230.519531 220.757812 C 225.058594 223.582031 218.914062 223.628906 213.140625 221.8125 C 212.1875 225.773438 210.703125 229.375 207.839844 232.371094 C 203.695312 236.710938 198.527344 238.792969 192.585938 238.929688 C 186.386719 238.839844 181.585938 236.683594 177.039062 232.5625 C 176.660156 233.085938 176.300781 233.625 175.917969 234.148438 C 171.679688 239.988281 165.742188 243.730469 158.59375 244.84375 C 151.613281 245.933594 143.925781 244.039062 138.234375 239.875 C 138.050781 239.738281 137.871094 239.601562 137.691406 239.464844 C 137.511719 239.328125 137.332031 239.1875 137.15625 239.042969 C 136.980469 238.902344 136.808594 238.753906 136.636719 238.609375 C 136.460938 238.460938 136.292969 238.3125 136.121094 238.160156 C 135.953125 238.011719 135.785156 237.855469 135.621094 237.699219 C 135.457031 237.546875 135.292969 237.386719 135.132812 237.230469 C 134.972656 237.070312 134.8125 236.90625 134.65625 236.746094 C 134.5 236.582031 134.34375 236.417969 134.191406 236.25 C 134.035156 236.082031 133.886719 235.914062 133.738281 235.742188 C 133.585938 235.570312 133.441406 235.398438 133.296875 235.222656 C 133.152344 235.050781 133.007812 234.875 132.867188 234.695312 C 132.726562 234.515625 132.589844 234.335938 132.453125 234.15625 C 132.316406 233.976562 132.183594 233.792969 132.054688 233.605469 C 131.921875 233.421875 131.792969 233.238281 131.664062 233.046875 C 131.539062 232.859375 131.414062 232.671875 131.292969 232.480469 C 131.171875 232.289062 131.050781 232.097656 130.933594 231.902344 C 130.816406 231.710938 130.699219 231.515625 130.585938 231.316406 C 130.476562 231.121094 130.363281 230.921875 130.257812 230.722656 C 130.148438 230.523438 130.042969 230.324219 129.941406 230.121094 C 129.839844 229.917969 129.738281 229.714844 129.640625 229.511719 C 129.542969 229.304688 129.449219 229.101562 129.355469 228.894531 C 129.261719 228.6875 129.171875 228.480469 129.085938 228.269531 C 128.996094 228.0625 128.914062 227.851562 128.828125 227.640625 C 128.746094 227.429688 128.667969 227.214844 128.589844 227.003906 C 128.511719 226.789062 128.4375 226.574219 128.367188 226.359375 C 128.296875 226.144531 128.226562 225.929688 128.160156 225.714844 C 128.09375 225.496094 128.027344 225.277344 127.96875 225.0625 C 127.90625 224.84375 127.847656 224.625 127.792969 224.402344 C 127.738281 224.183594 127.683594 223.964844 127.632812 223.742188 C 127.582031 223.523438 127.535156 223.300781 127.488281 223.078125 C 127.445312 222.855469 127.402344 222.632812 127.363281 222.410156 C 127.324219 222.1875 127.289062 221.964844 127.253906 221.738281 C 126.449219 216.460938 127.113281 210.671875 129.429688 205.84375 C 130.445312 203.726562 131.761719 201.785156 133.148438 199.898438 C 132.847656 199.398438 132.558594 198.894531 132.273438 198.386719 C 131.210938 196.472656 130.253906 194.496094 129.566406 192.414062 C 129.453125 192.066406 129.347656 191.71875 129.25 191.371094 C 129.152344 191.019531 129.058594 190.667969 128.972656 190.316406 C 128.886719 189.960938 128.808594 189.609375 128.734375 189.253906 C 128.664062 188.898438 128.597656 188.539062 128.535156 188.179688 C 128.476562 187.824219 128.425781 187.464844 128.378906 187.101562 C 128.332031 186.742188 128.292969 186.382812 128.257812 186.019531 C 128.226562 185.65625 128.199219 185.296875 128.179688 184.933594 C 128.160156 184.570312 128.148438 184.207031 128.140625 183.84375 C 128.136719 183.480469 128.136719 183.117188 128.140625 182.753906 C 128.148438 182.390625 128.164062 182.027344 128.183594 181.664062 C 128.203125 181.304688 128.230469 180.941406 128.265625 180.578125 C 128.300781 180.21875 128.339844 179.855469 128.386719 179.496094 C 128.433594 179.136719 128.488281 178.777344 128.550781 178.417969 C 128.609375 178.058594 128.675781 177.703125 128.75 177.347656 C 128.824219 176.992188 128.902344 176.636719 128.992188 176.285156 C 129.078125 175.933594 129.171875 175.582031 129.269531 175.230469 C 131.304688 168.183594 136.433594 161.816406 142.855469 158.273438 C 150.109375 154.269531 157.867188 153.558594 165.800781 155.851562 C 166.082031 154.703125 166.234375 153.527344 166.527344 152.375 C 166.574219 152.1875 166.625 151.996094 166.675781 151.808594 C 166.730469 151.621094 166.78125 151.433594 166.839844 151.246094 C 166.894531 151.058594 166.953125 150.871094 167.011719 150.683594 C 167.070312 150.5 167.132812 150.3125 167.195312 150.128906 C 167.257812 149.941406 167.324219 149.757812 167.390625 149.574219 C 167.457031 149.390625 167.527344 149.207031 167.597656 149.027344 C 167.667969 148.84375 167.738281 148.660156 167.8125 148.480469 C 167.886719 148.300781 167.964844 148.121094 168.042969 147.941406 C 168.121094 147.761719 168.199219 147.582031 168.28125 147.40625 C 168.363281 147.226562 168.445312 147.050781 168.527344 146.875 C 168.613281 146.699219 168.699219 146.523438 168.789062 146.347656 C 168.875 146.171875 168.964844 146 169.058594 145.828125 C 169.148438 145.65625 169.242188 145.484375 169.339844 145.3125 C 169.433594 145.140625 169.53125 144.972656 169.628906 144.800781 C 169.726562 144.632812 169.828125 144.464844 169.929688 144.300781 C 170.03125 144.132812 170.132812 143.964844 170.238281 143.800781 C 170.34375 143.636719 170.449219 143.472656 170.558594 143.308594 C 170.667969 143.148438 170.777344 142.984375 170.890625 142.824219 C 171 142.664062 171.113281 142.503906 171.226562 142.347656 C 171.34375 142.1875 171.460938 142.03125 171.578125 141.875 C 171.695312 141.71875 171.8125 141.5625 171.933594 141.410156 C 172.054688 141.257812 172.179688 141.105469 172.300781 140.953125 C 172.425781 140.800781 172.550781 140.652344 172.679688 140.503906 C 172.804688 140.355469 172.933594 140.207031 173.0625 140.0625 C 173.191406 139.914062 173.324219 139.769531 173.457031 139.625 C 173.589844 139.484375 173.722656 139.339844 173.859375 139.199219 C 173.992188 139.058594 174.132812 138.917969 174.269531 138.78125 C 174.40625 138.644531 174.546875 138.507812 174.6875 138.371094 C 174.828125 138.234375 174.972656 138.101562 175.113281 137.96875 C 175.257812 137.835938 175.402344 137.703125 175.550781 137.574219 C 175.695312 137.445312 175.84375 137.316406 175.992188 137.191406 C 176.140625 137.0625 176.289062 136.9375 176.441406 136.8125 C 177.828125 135.691406 179.3125 134.753906 180.84375 133.84375 Z M 180.84375 133.84375 "/></g></g></g><g clip-rule="nonzero" clip-path="url(#dcdb739327)"><g clip-rule="nonzero" clip-path="url(#81b2b80155)"><g clip-rule="nonzero" clip-path="url(#d365e07d64)"><path style=" stroke:none;fill-rule:nonzero;fill:#ffffff;fill-opacity:1;" d="M 177.742188 132.023438 C 178.234375 131.660156 178.851562 131.359375 179.394531 131.070312 C 179.621094 130.949219 179.851562 130.832031 180.085938 130.714844 C 180.316406 130.597656 180.550781 130.484375 180.785156 130.375 C 181.023438 130.261719 181.257812 130.15625 181.496094 130.050781 C 181.734375 129.945312 181.972656 129.84375 182.210938 129.742188 C 182.453125 129.644531 182.695312 129.546875 182.9375 129.457031 C 183.179688 129.363281 183.421875 129.273438 183.667969 129.183594 C 183.914062 129.097656 184.15625 129.011719 184.40625 128.933594 C 184.652344 128.851562 184.898438 128.773438 185.148438 128.699219 C 185.398438 128.621094 185.648438 128.550781 185.898438 128.480469 C 186.148438 128.414062 186.398438 128.347656 186.652344 128.285156 C 186.902344 128.21875 187.15625 128.160156 187.410156 128.105469 C 187.664062 128.046875 187.917969 127.992188 188.171875 127.941406 C 188.425781 127.894531 188.683594 127.84375 188.9375 127.800781 C 189.195312 127.757812 189.453125 127.714844 189.707031 127.679688 C 189.964844 127.640625 190.222656 127.605469 190.480469 127.574219 C 190.738281 127.542969 190.996094 127.511719 191.253906 127.488281 C 191.515625 127.460938 191.773438 127.441406 192.03125 127.421875 C 192.292969 127.402344 192.550781 127.386719 192.808594 127.375 C 193.070312 127.363281 193.328125 127.351562 193.589844 127.347656 C 193.847656 127.339844 194.109375 127.335938 194.367188 127.335938 C 194.628906 127.335938 194.886719 127.339844 195.148438 127.347656 C 195.40625 127.351562 195.667969 127.363281 195.925781 127.375 C 196.1875 127.386719 196.445312 127.402344 196.703125 127.421875 C 196.964844 127.441406 197.222656 127.464844 197.480469 127.488281 C 197.738281 127.515625 198 127.542969 198.257812 127.574219 C 198.515625 127.609375 198.773438 127.644531 199.027344 127.679688 C 199.285156 127.71875 199.542969 127.761719 199.796875 127.804688 C 200.054688 127.847656 200.308594 127.898438 200.5625 127.945312 C 200.820312 127.996094 201.074219 128.050781 201.328125 128.109375 C 201.582031 128.164062 201.832031 128.226562 202.085938 128.289062 C 202.335938 128.351562 202.589844 128.417969 202.839844 128.488281 C 203.089844 128.554688 203.339844 128.628906 203.589844 128.703125 C 203.796875 128.769531 204.007812 128.835938 204.214844 128.902344 C 204.421875 128.972656 204.628906 129.042969 204.835938 129.117188 C 205.042969 129.1875 205.25 129.261719 205.453125 129.339844 C 205.660156 129.417969 205.863281 129.496094 206.066406 129.578125 C 206.269531 129.660156 206.472656 129.746094 206.671875 129.832031 C 206.875 129.914062 207.074219 130.003906 207.273438 130.09375 C 207.472656 130.183594 207.671875 130.277344 207.871094 130.371094 C 208.070312 130.464844 208.265625 130.558594 208.460938 130.660156 C 208.65625 130.757812 208.851562 130.855469 209.046875 130.960938 C 209.238281 131.0625 209.433594 131.167969 209.625 131.273438 C 209.816406 131.378906 210.003906 131.488281 210.195312 131.597656 C 210.382812 131.707031 210.570312 131.820312 210.757812 131.933594 C 210.945312 132.046875 211.132812 132.164062 211.316406 132.28125 C 211.5 132.402344 211.683594 132.519531 211.867188 132.644531 C 212.046875 132.765625 212.226562 132.890625 212.40625 133.015625 C 212.585938 133.140625 212.765625 133.269531 212.941406 133.398438 C 213.117188 133.527344 213.292969 133.660156 213.46875 133.792969 C 213.640625 133.925781 213.8125 134.058594 213.984375 134.195312 C 214.15625 134.332031 214.324219 134.472656 214.492188 134.613281 C 214.664062 134.753906 214.828125 134.894531 214.992188 135.039062 C 215.160156 135.183594 215.324219 135.328125 215.484375 135.476562 C 215.648438 135.621094 215.808594 135.769531 215.96875 135.921875 C 216.125 136.070312 216.285156 136.222656 216.441406 136.378906 C 216.59375 136.53125 216.75 136.6875 216.902344 136.84375 C 217.054688 137 217.207031 137.160156 217.355469 137.320312 C 217.503906 137.480469 217.652344 137.644531 217.796875 137.804688 C 217.945312 137.96875 218.089844 138.132812 218.230469 138.300781 C 218.375 138.46875 218.515625 138.636719 218.652344 138.804688 C 218.792969 138.972656 218.929688 139.144531 219.066406 139.316406 C 219.199219 139.488281 219.335938 139.664062 219.464844 139.835938 C 219.597656 140.011719 219.726562 140.1875 219.855469 140.367188 C 219.984375 140.542969 220.109375 140.722656 220.234375 140.902344 C 221.214844 142.316406 222.027344 143.8125 222.835938 145.328125 C 224.117188 144.925781 225.410156 144.546875 226.738281 144.320312 C 230.804688 143.617188 235.246094 143.96875 239.191406 145.140625 C 247.480469 147.605469 253.550781 152.691406 257.644531 160.269531 C 261.28125 166.996094 262.003906 174.644531 259.824219 181.945312 C 258.238281 187.253906 254.621094 192.25 250.199219 195.570312 C 248.535156 196.820312 246.75 197.808594 244.925781 198.796875 C 245.304688 200.875 245.351562 203.320312 245.023438 205.40625 C 244.992188 205.605469 244.957031 205.808594 244.921875 206.007812 C 244.886719 206.207031 244.847656 206.40625 244.804688 206.601562 C 244.765625 206.800781 244.722656 207 244.675781 207.195312 C 244.628906 207.394531 244.582031 207.589844 244.53125 207.785156 C 244.480469 207.984375 244.425781 208.179688 244.371094 208.375 C 244.3125 208.566406 244.253906 208.761719 244.195312 208.957031 C 244.132812 209.148438 244.070312 209.339844 244.003906 209.535156 C 243.941406 209.726562 243.871094 209.917969 243.800781 210.105469 C 243.730469 210.296875 243.660156 210.484375 243.585938 210.675781 C 243.511719 210.863281 243.433594 211.050781 243.355469 211.238281 C 243.273438 211.421875 243.191406 211.609375 243.109375 211.792969 C 243.023438 211.976562 242.9375 212.160156 242.847656 212.34375 C 242.761719 212.523438 242.671875 212.707031 242.578125 212.886719 C 242.484375 213.066406 242.390625 213.246094 242.292969 213.421875 C 242.195312 213.601562 242.09375 213.777344 241.992188 213.953125 C 241.890625 214.128906 241.785156 214.300781 241.679688 214.472656 C 241.574219 214.648438 241.464844 214.816406 241.355469 214.988281 C 241.246094 215.15625 241.132812 215.328125 241.019531 215.492188 C 240.902344 215.660156 240.789062 215.828125 240.667969 215.992188 C 240.550781 216.15625 240.429688 216.316406 240.308594 216.480469 C 240.183594 216.640625 240.058594 216.800781 239.933594 216.957031 C 239.804688 217.117188 239.675781 217.273438 239.546875 217.429688 C 239.417969 217.582031 239.285156 217.738281 239.148438 217.890625 C 239.015625 218.039062 238.878906 218.191406 238.742188 218.339844 C 238.601562 218.488281 238.464844 218.632812 238.320312 218.78125 C 238.179688 218.925781 238.035156 219.066406 237.890625 219.210938 C 237.746094 219.351562 237.601562 219.488281 237.449219 219.628906 C 237.300781 219.765625 237.152344 219.902344 237 220.035156 C 236.847656 220.167969 236.695312 220.300781 236.539062 220.433594 C 236.382812 220.5625 236.226562 220.691406 236.070312 220.816406 C 235.910156 220.941406 235.75 221.066406 235.589844 221.191406 C 235.425781 221.3125 235.265625 221.433594 235.101562 221.550781 C 234.960938 221.652344 234.824219 221.75 234.683594 221.847656 C 234.542969 221.945312 234.402344 222.039062 234.261719 222.132812 C 234.117188 222.230469 233.976562 222.320312 233.832031 222.414062 C 233.6875 222.503906 233.542969 222.59375 233.394531 222.683594 C 233.25 222.769531 233.105469 222.855469 232.957031 222.941406 C 232.808594 223.027344 232.660156 223.109375 232.511719 223.191406 C 232.359375 223.273438 232.210938 223.355469 232.058594 223.433594 C 231.910156 223.511719 231.757812 223.589844 231.605469 223.664062 C 231.453125 223.738281 231.296875 223.8125 231.144531 223.886719 C 230.988281 223.957031 230.835938 224.03125 230.679688 224.097656 C 230.523438 224.167969 230.367188 224.234375 230.207031 224.300781 C 230.050781 224.367188 229.894531 224.429688 229.734375 224.492188 C 229.578125 224.554688 229.417969 224.617188 229.257812 224.675781 C 229.097656 224.734375 228.9375 224.792969 228.777344 224.847656 C 228.617188 224.902344 228.453125 224.957031 228.292969 225.011719 C 228.128906 225.0625 227.964844 225.113281 227.804688 225.160156 C 227.640625 225.210938 227.476562 225.257812 227.3125 225.304688 C 227.148438 225.347656 226.984375 225.394531 226.816406 225.433594 C 226.652344 225.476562 226.488281 225.515625 226.320312 225.554688 C 226.15625 225.59375 225.988281 225.628906 225.820312 225.664062 C 225.65625 225.699219 225.488281 225.734375 225.320312 225.765625 C 225.152344 225.796875 224.984375 225.828125 224.816406 225.855469 C 224.648438 225.882812 224.480469 225.910156 224.3125 225.933594 C 224.144531 225.957031 223.976562 225.980469 223.804688 226 C 223.636719 226.023438 223.46875 226.039062 223.296875 226.058594 C 223.128906 226.074219 222.957031 226.089844 222.789062 226.105469 C 222.617188 226.117188 222.449219 226.128906 222.277344 226.140625 C 222.109375 226.152344 221.9375 226.160156 221.769531 226.164062 C 221.597656 226.171875 221.425781 226.175781 221.257812 226.179688 C 221.085938 226.183594 220.917969 226.183594 220.746094 226.183594 C 220.574219 226.183594 220.40625 226.179688 220.234375 226.175781 C 220.0625 226.171875 219.894531 226.164062 219.722656 226.15625 C 218.222656 226.09375 216.746094 225.859375 215.261719 225.621094 C 214.476562 228.140625 213.082031 230.644531 211.46875 232.726562 C 211.347656 232.882812 211.226562 233.039062 211.101562 233.191406 C 210.976562 233.34375 210.851562 233.496094 210.726562 233.648438 C 210.597656 233.796875 210.46875 233.945312 210.335938 234.09375 C 210.203125 234.242188 210.070312 234.386719 209.9375 234.527344 C 209.800781 234.671875 209.664062 234.816406 209.527344 234.953125 C 209.386719 235.09375 209.246094 235.234375 209.105469 235.371094 C 208.960938 235.507812 208.820312 235.640625 208.671875 235.773438 C 208.527344 235.910156 208.382812 236.039062 208.234375 236.167969 C 208.082031 236.296875 207.933594 236.425781 207.78125 236.550781 C 207.628906 236.679688 207.476562 236.800781 207.320312 236.921875 C 207.167969 237.046875 207.011719 237.164062 206.851562 237.285156 C 206.695312 237.402344 206.535156 237.519531 206.375 237.632812 C 206.214844 237.746094 206.050781 237.859375 205.886719 237.96875 C 205.722656 238.078125 205.558594 238.1875 205.394531 238.292969 C 205.226562 238.398438 205.058594 238.503906 204.890625 238.605469 C 204.722656 238.707031 204.550781 238.804688 204.378906 238.902344 C 204.210938 239 204.035156 239.097656 203.863281 239.1875 C 203.6875 239.28125 203.515625 239.375 203.339844 239.460938 C 203.164062 239.550781 202.984375 239.636719 202.808594 239.722656 C 202.628906 239.808594 202.449219 239.890625 202.269531 239.96875 C 202.089844 240.050781 201.910156 240.128906 201.726562 240.203125 C 201.542969 240.277344 201.363281 240.351562 201.175781 240.421875 C 200.992188 240.492188 200.808594 240.5625 200.625 240.628906 C 200.4375 240.695312 200.25 240.761719 200.0625 240.820312 C 199.875 240.882812 199.6875 240.941406 199.5 241 C 199.3125 241.058594 199.121094 241.113281 198.933594 241.164062 C 198.742188 241.214844 198.550781 241.265625 198.359375 241.316406 C 198.167969 241.363281 197.976562 241.40625 197.785156 241.449219 C 197.589844 241.492188 197.398438 241.535156 197.207031 241.570312 C 197.011719 241.609375 196.816406 241.644531 196.625 241.679688 C 196.429688 241.710938 196.234375 241.742188 196.039062 241.769531 C 195.84375 241.800781 195.648438 241.824219 195.453125 241.847656 C 195.152344 241.882812 194.855469 241.90625 194.554688 241.929688 C 194.253906 241.949219 193.953125 241.964844 193.652344 241.976562 C 193.351562 241.984375 193.050781 241.992188 192.75 241.992188 C 192.449219 241.988281 192.148438 241.984375 191.847656 241.972656 C 191.546875 241.960938 191.246094 241.945312 190.945312 241.925781 C 190.644531 241.902344 190.347656 241.878906 190.046875 241.84375 C 189.746094 241.8125 189.449219 241.777344 189.152344 241.734375 C 188.851562 241.691406 188.554688 241.640625 188.261719 241.589844 C 187.964844 241.535156 187.667969 241.476562 187.375 241.414062 C 187.082031 241.351562 186.789062 241.28125 186.496094 241.207031 C 186.203125 241.132812 185.914062 241.054688 185.625 240.972656 C 185.335938 240.886719 185.046875 240.796875 184.761719 240.703125 C 184.476562 240.609375 184.191406 240.511719 183.910156 240.40625 C 183.628906 240.300781 183.347656 240.191406 183.070312 240.078125 C 182.789062 239.964844 182.515625 239.84375 182.242188 239.722656 C 181.964844 239.597656 181.695312 239.46875 181.425781 239.335938 C 180.105469 238.671875 178.863281 237.839844 177.59375 237.089844 C 173.277344 242.554688 167.496094 246.320312 160.621094 247.683594 C 160.367188 247.730469 160.117188 247.773438 159.863281 247.816406 C 159.609375 247.859375 159.355469 247.898438 159.101562 247.933594 C 158.84375 247.96875 158.589844 248 158.335938 248.03125 C 158.082031 248.058594 157.824219 248.085938 157.570312 248.109375 C 157.3125 248.132812 157.058594 248.152344 156.800781 248.167969 C 156.542969 248.1875 156.289062 248.199219 156.03125 248.210938 C 155.773438 248.21875 155.515625 248.226562 155.261719 248.230469 C 155.003906 248.238281 154.746094 248.238281 154.488281 248.234375 C 154.234375 248.234375 153.976562 248.226562 153.71875 248.21875 C 153.460938 248.210938 153.207031 248.199219 152.949219 248.183594 C 152.691406 248.171875 152.4375 248.152344 152.179688 248.132812 C 151.925781 248.109375 151.667969 248.085938 151.414062 248.058594 C 151.15625 248.03125 150.902344 248 150.648438 247.96875 C 150.394531 247.933594 150.140625 247.898438 149.886719 247.859375 C 149.632812 247.820312 149.378906 247.777344 149.125 247.730469 C 148.871094 247.683594 148.621094 247.632812 148.367188 247.582031 C 148.117188 247.53125 147.867188 247.476562 147.617188 247.417969 C 147.367188 247.359375 147.117188 247.296875 146.867188 247.234375 C 146.617188 247.167969 146.371094 247.101562 146.125 247.03125 C 145.878906 246.960938 145.632812 246.886719 145.386719 246.808594 C 145.140625 246.734375 144.894531 246.652344 144.652344 246.570312 C 144.410156 246.488281 144.167969 246.402344 143.925781 246.3125 C 143.683594 246.226562 143.445312 246.132812 143.207031 246.039062 C 142.96875 245.945312 142.730469 245.847656 142.492188 245.75 C 142.257812 245.648438 142.019531 245.542969 141.785156 245.4375 C 141.550781 245.332031 141.320312 245.222656 141.089844 245.113281 C 140.855469 245 140.628906 244.886719 140.398438 244.769531 C 140.171875 244.652344 139.941406 244.53125 139.71875 244.410156 C 139.492188 244.285156 139.269531 244.160156 139.046875 244.03125 C 138.824219 243.902344 138.601562 243.773438 138.382812 243.636719 C 138.164062 243.503906 137.945312 243.367188 137.730469 243.226562 C 137.511719 243.089844 137.300781 242.949219 137.085938 242.804688 C 130.574219 238.402344 126.003906 231.113281 124.527344 223.429688 C 123.40625 217.597656 123.859375 211.238281 126.140625 205.730469 C 127.042969 203.554688 128.210938 201.5625 129.53125 199.617188 C 128.933594 198.820312 128.496094 197.796875 128.070312 196.894531 C 125.558594 191.523438 124.722656 185.484375 125.304688 179.609375 C 126.121094 171.390625 130.691406 163.640625 137.042969 158.464844 C 142.433594 154.070312 149.867188 151.519531 156.792969 151.460938 C 159.042969 151.441406 161.238281 151.746094 163.472656 151.976562 C 165.644531 143.519531 170.441406 136.800781 177.742188 132.023438 Z M 177.742188 132.023438 "/></g></g></g><g clip-rule="nonzero" clip-path="url(#a61e9a7e7a)"><g clip-rule="nonzero" clip-path="url(#f2a82e8794)"><g clip-rule="nonzero" clip-path="url(#2e286ab365)"><path style=" stroke:none;fill-rule:nonzero;fill:#ffffff;fill-opacity:1;" d="M 180.84375 133.84375 C 181.429688 133.503906 182.046875 133.203125 182.664062 132.921875 C 189.871094 129.589844 197.648438 129.582031 205.03125 132.324219 C 205.257812 132.410156 205.484375 132.5 205.707031 132.589844 C 205.933594 132.679688 206.15625 132.773438 206.378906 132.867188 C 206.601562 132.964844 206.824219 133.0625 207.046875 133.164062 C 207.265625 133.265625 207.484375 133.371094 207.703125 133.476562 C 207.921875 133.585938 208.136719 133.695312 208.351562 133.808594 C 208.566406 133.917969 208.78125 134.035156 208.992188 134.152344 C 209.207031 134.269531 209.417969 134.390625 209.625 134.511719 C 209.835938 134.636719 210.042969 134.761719 210.25 134.890625 C 210.457031 135.019531 210.660156 135.148438 210.863281 135.28125 C 211.066406 135.414062 211.269531 135.550781 211.46875 135.6875 C 211.667969 135.824219 211.863281 135.964844 212.0625 136.109375 C 212.257812 136.253906 212.453125 136.398438 212.644531 136.546875 C 212.835938 136.695312 213.027344 136.84375 213.214844 136.996094 C 213.40625 137.148438 213.59375 137.304688 213.777344 137.460938 C 213.960938 137.617188 214.144531 137.777344 214.328125 137.9375 C 214.507812 138.101562 214.6875 138.265625 214.863281 138.429688 C 215.042969 138.597656 215.214844 138.765625 215.390625 138.933594 C 215.5625 139.105469 215.734375 139.277344 215.902344 139.453125 C 216.070312 139.625 216.238281 139.804688 216.402344 139.980469 C 216.566406 140.160156 216.726562 140.339844 216.886719 140.523438 C 217.046875 140.707031 217.203125 140.890625 217.359375 141.078125 C 217.515625 141.265625 217.667969 141.453125 217.816406 141.644531 C 217.96875 141.832031 218.117188 142.027344 218.261719 142.21875 C 218.410156 142.414062 218.550781 142.609375 218.691406 142.808594 C 218.835938 143.003906 218.972656 143.203125 219.109375 143.40625 C 219.246094 143.605469 219.378906 143.808594 219.507812 144.015625 C 219.640625 144.21875 219.769531 144.425781 219.894531 144.632812 C 220.019531 144.839844 220.144531 145.046875 220.265625 145.257812 C 220.386719 145.46875 220.503906 145.679688 220.621094 145.894531 C 220.734375 146.109375 220.847656 146.324219 220.957031 146.539062 C 221.066406 146.753906 221.175781 146.972656 221.28125 147.191406 C 221.386719 147.410156 221.488281 147.632812 221.585938 147.851562 C 228.382812 145.480469 234.386719 145.277344 241.160156 147.894531 C 241.363281 147.972656 241.570312 148.054688 241.777344 148.136719 C 241.980469 148.21875 242.183594 148.304688 242.386719 148.394531 C 242.589844 148.484375 242.789062 148.574219 242.992188 148.667969 C 243.191406 148.761719 243.390625 148.859375 243.585938 148.957031 C 243.785156 149.054688 243.980469 149.15625 244.179688 149.261719 C 244.375 149.363281 244.566406 149.46875 244.761719 149.578125 C 244.953125 149.6875 245.144531 149.796875 245.335938 149.910156 C 245.523438 150.023438 245.714844 150.136719 245.902344 150.253906 C 246.089844 150.371094 246.273438 150.492188 246.457031 150.613281 C 246.644531 150.734375 246.824219 150.859375 247.007812 150.988281 C 247.1875 151.113281 247.367188 151.242188 247.546875 151.375 C 247.722656 151.503906 247.902344 151.636719 248.074219 151.773438 C 248.25 151.910156 248.421875 152.046875 248.59375 152.1875 C 248.765625 152.324219 248.9375 152.46875 249.105469 152.609375 C 249.273438 152.753906 249.4375 152.902344 249.601562 153.046875 C 249.765625 153.195312 249.929688 153.347656 250.089844 153.5 C 250.25 153.648438 250.410156 153.804688 250.566406 153.960938 C 250.722656 154.117188 250.878906 154.273438 251.03125 154.433594 C 251.183594 154.59375 251.335938 154.753906 251.484375 154.917969 C 251.632812 155.082031 251.78125 155.246094 251.925781 155.414062 C 252.070312 155.578125 252.214844 155.75 252.355469 155.917969 C 252.496094 156.089844 252.632812 156.261719 252.769531 156.4375 C 252.90625 156.609375 253.039062 156.785156 253.171875 156.960938 C 253.304688 157.140625 253.433594 157.316406 253.5625 157.5 C 253.691406 157.679688 253.816406 157.859375 253.941406 158.042969 C 254.0625 158.226562 254.183594 158.414062 254.304688 158.597656 C 254.421875 158.785156 254.539062 158.972656 254.652344 159.164062 C 254.765625 159.351562 254.878906 159.542969 254.988281 159.734375 C 255.097656 159.925781 255.207031 160.121094 255.308594 160.316406 C 255.414062 160.511719 255.515625 160.707031 255.617188 160.902344 C 255.714844 161.101562 255.8125 161.300781 255.910156 161.5 C 256.003906 161.699219 256.097656 161.898438 256.1875 162.101562 C 258.988281 168.457031 258.859375 176.125 256.34375 182.558594 C 254.464844 187.363281 250.902344 191.703125 246.503906 194.402344 C 244.945312 195.359375 243.308594 196.074219 241.640625 196.800781 C 242.3125 200.460938 242.371094 204.492188 241.261719 208.0625 C 239.523438 213.636719 235.695312 218.082031 230.519531 220.757812 C 225.058594 223.582031 218.914062 223.628906 213.140625 221.8125 C 212.1875 225.773438 210.703125 229.375 207.839844 232.371094 C 203.695312 236.710938 198.527344 238.792969 192.585938 238.929688 C 186.386719 238.839844 181.585938 236.683594 177.039062 232.5625 C 176.660156 233.085938 176.300781 233.625 175.917969 234.148438 C 171.679688 239.988281 165.742188 243.730469 158.59375 244.84375 C 151.613281 245.933594 143.925781 244.039062 138.234375 239.875 C 138.050781 239.738281 137.871094 239.601562 137.691406 239.464844 C 137.511719 239.328125 137.332031 239.1875 137.15625 239.042969 C 136.980469 238.902344 136.808594 238.753906 136.636719 238.609375 C 136.460938 238.460938 136.292969 238.3125 136.121094 238.160156 C 135.953125 238.011719 135.785156 237.855469 135.621094 237.699219 C 135.457031 237.546875 135.292969 237.386719 135.132812 237.230469 C 134.972656 237.070312 134.8125 236.90625 134.65625 236.746094 C 134.5 236.582031 134.34375 236.417969 134.191406 236.25 C 134.035156 236.082031 133.886719 235.914062 133.738281 235.742188 C 133.585938 235.570312 133.441406 235.398438 133.296875 235.222656 C 133.152344 235.050781 133.007812 234.875 132.867188 234.695312 C 132.726562 234.515625 132.589844 234.335938 132.453125 234.15625 C 132.316406 233.976562 132.183594 233.792969 132.054688 233.605469 C 131.921875 233.421875 131.792969 233.238281 131.664062 233.046875 C 131.539062 232.859375 131.414062 232.671875 131.292969 232.480469 C 131.171875 232.289062 131.050781 232.097656 130.933594 231.902344 C 130.816406 231.710938 130.699219 231.515625 130.585938 231.316406 C 130.476562 231.121094 130.363281 230.921875 130.257812 230.722656 C 130.148438 230.523438 130.042969 230.324219 129.941406 230.121094 C 129.839844 229.917969 129.738281 229.714844 129.640625 229.511719 C 129.542969 229.304688 129.449219 229.101562 129.355469 228.894531 C 129.261719 228.6875 129.171875 228.480469 129.085938 228.269531 C 128.996094 228.0625 128.914062 227.851562 128.828125 227.640625 C 128.746094 227.429688 128.667969 227.214844 128.589844 227.003906 C 128.511719 226.789062 128.4375 226.574219 128.367188 226.359375 C 128.296875 226.144531 128.226562 225.929688 128.160156 225.714844 C 128.09375 225.496094 128.027344 225.277344 127.96875 225.0625 C 127.90625 224.84375 127.847656 224.625 127.792969 224.402344 C 127.738281 224.183594 127.683594 223.964844 127.632812 223.742188 C 127.582031 223.523438 127.535156 223.300781 127.488281 223.078125 C 127.445312 222.855469 127.402344 222.632812 127.363281 222.410156 C 127.324219 222.1875 127.289062 221.964844 127.253906 221.738281 C 126.449219 216.460938 127.113281 210.671875 129.429688 205.84375 C 130.445312 203.726562 131.761719 201.785156 133.148438 199.898438 C 132.847656 199.398438 132.558594 198.894531 132.273438 198.386719 C 131.210938 196.472656 130.253906 194.496094 129.566406 192.414062 C 129.453125 192.066406 129.347656 191.71875 129.25 191.371094 C 129.152344 191.019531 129.058594 190.667969 128.972656 190.316406 C 128.886719 189.960938 128.808594 189.609375 128.734375 189.253906 C 128.664062 188.898438 128.597656 188.539062 128.535156 188.179688 C 128.476562 187.824219 128.425781 187.464844 128.378906 187.101562 C 128.332031 186.742188 128.292969 186.382812 128.257812 186.019531 C 128.226562 185.65625 128.199219 185.296875 128.179688 184.933594 C 128.160156 184.570312 128.148438 184.207031 128.140625 183.84375 C 128.136719 183.480469 128.136719 183.117188 128.140625 182.753906 C 128.148438 182.390625 128.164062 182.027344 128.183594 181.664062 C 128.203125 181.304688 128.230469 180.941406 128.265625 180.578125 C 128.300781 180.21875 128.339844 179.855469 128.386719 179.496094 C 128.433594 179.136719 128.488281 178.777344 128.550781 178.417969 C 128.609375 178.058594 128.675781 177.703125 128.75 177.347656 C 128.824219 176.992188 128.902344 176.636719 128.992188 176.285156 C 129.078125 175.933594 129.171875 175.582031 129.269531 175.230469 C 131.304688 168.183594 136.433594 161.816406 142.855469 158.273438 C 150.109375 154.269531 157.867188 153.558594 165.800781 155.851562 C 166.082031 154.703125 166.234375 153.527344 166.527344 152.375 C 166.574219 152.1875 166.625 151.996094 166.675781 151.808594 C 166.730469 151.621094 166.78125 151.433594 166.839844 151.246094 C 166.894531 151.058594 166.953125 150.871094 167.011719 150.683594 C 167.070312 150.5 167.132812 150.3125 167.195312 150.128906 C 167.257812 149.941406 167.324219 149.757812 167.390625 149.574219 C 167.457031 149.390625 167.527344 149.207031 167.597656 149.027344 C 167.667969 148.84375 167.738281 148.660156 167.8125 148.480469 C 167.886719 148.300781 167.964844 148.121094 168.042969 147.941406 C 168.121094 147.761719 168.199219 147.582031 168.28125 147.40625 C 168.363281 147.226562 168.445312 147.050781 168.527344 146.875 C 168.613281 146.699219 168.699219 146.523438 168.789062 146.347656 C 168.875 146.171875 168.964844 146 169.058594 145.828125 C 169.148438 145.65625 169.242188 145.484375 169.339844 145.3125 C 169.433594 145.140625 169.53125 144.972656 169.628906 144.800781 C 169.726562 144.632812 169.828125 144.464844 169.929688 144.300781 C 170.03125 144.132812 170.132812 143.964844 170.238281 143.800781 C 170.34375 143.636719 170.449219 143.472656 170.558594 143.308594 C 170.667969 143.148438 170.777344 142.984375 170.890625 142.824219 C 171 142.664062 171.113281 142.503906 171.226562 142.347656 C 171.34375 142.1875 171.460938 142.03125 171.578125 141.875 C 171.695312 141.71875 171.8125 141.5625 171.933594 141.410156 C 172.054688 141.257812 172.179688 141.105469 172.300781 140.953125 C 172.425781 140.800781 172.550781 140.652344 172.679688 140.503906 C 172.804688 140.355469 172.933594 140.207031 173.0625 140.0625 C 173.191406 139.914062 173.324219 139.769531 173.457031 139.625 C 173.589844 139.484375 173.722656 139.339844 173.859375 139.199219 C 173.992188 139.058594 174.132812 138.917969 174.269531 138.78125 C 174.40625 138.644531 174.546875 138.507812 174.6875 138.371094 C 174.828125 138.234375 174.972656 138.101562 175.113281 137.96875 C 175.257812 137.835938 175.402344 137.703125 175.550781 137.574219 C 175.695312 137.445312 175.84375 137.316406 175.992188 137.191406 C 176.140625 137.0625 176.289062 136.9375 176.441406 136.8125 C 177.828125 135.691406 179.3125 134.753906 180.84375 133.84375 Z M 180.84375 133.84375 "/></g></g></g></g></svg>